HIERARCHY
ROOT locator2
{
  OFFSET 53.6172 30.1899 0.816905
  CHANNELS 6 Xposition Yposition Zposition Zrotation Xrotation Yrotation
  JOINT koshi
  {
    OFFSET 0 0 0
    CHANNELS 6 Xposition Yposition Zposition Zrotation Xrotation Yrotation
    JOINT sippo01
    {
      OFFSET 0 42.8363 -0.548134
      CHANNELS 6 Xposition Yposition Zposition Zrotation Xrotation Yrotation
      JOINT sippo02
      {
        OFFSET 0 44.0461 -3.28882
        CHANNELS 6 Xposition Yposition Zposition Zrotation Xrotation Yrotation
        JOINT sippo03
        {
          OFFSET 0 34.1929 -2.46662
          CHANNELS 6 Xposition Yposition Zposition Zrotation Xrotation Yrotation
          JOINT sippo04
          {
            OFFSET 0 30.0959 -1.75404
            CHANNELS 6 Xposition Yposition Zposition Zrotation Xrotation Yrotation
            JOINT sippo05
            {
              OFFSET 0 28.3637 -1.75404
              CHANNELS 6 Xposition Yposition Zposition Zrotation Xrotation Yrotation
              JOINT sippo06
              {
                OFFSET 0 31.6071 -3.2043
                CHANNELS 6 Xposition Yposition Zposition Zrotation Xrotation Yrotation
                End Site
                {
                  OFFSET 0 0 0
                }
              }
            }
          }
        }
      }
    }
    JOINT R_momo
    {
      OFFSET -27.891 13.5892 3.92723
      CHANNELS 6 Xposition Yposition Zposition Zrotation Xrotation Yrotation
      JOINT R_hiza
      {
        OFFSET 0 28.01 1.8232
        CHANNELS 6 Xposition Yposition Zposition Zrotation Xrotation Yrotation
        JOINT R_ashi
        {
          OFFSET 0 24.3992 -2.49174
          CHANNELS 6 Xposition Yposition Zposition Zrotation Xrotation Yrotation
          End Site
          {
            OFFSET 0 0 0
          }
        }
      }
    }
    JOINT L_momo
    {
      OFFSET 27.891 13.5892 3.92714
      CHANNELS 6 Xposition Yposition Zposition Zrotation Xrotation Yrotation
      JOINT L_hiza
      {
        OFFSET 0 28.0098 1.82319
        CHANNELS 6 Xposition Yposition Zposition Zrotation Xrotation Yrotation
        JOINT L_ashi
        {
          OFFSET 0 24.3992 -2.49171
          CHANNELS 6 Xposition Yposition Zposition Zrotation Xrotation Yrotation
          End Site
          {
            OFFSET 0 0 0
          }
        }
      }
    }
  }
  JOINT hara
  {
    OFFSET 0 2.15392 0
    CHANNELS 6 Xposition Yposition Zposition Zrotation Xrotation Yrotation
    JOINT mune
    {
      OFFSET 0 62.0609 0.472494
      CHANNELS 6 Xposition Yposition Zposition Zrotation Xrotation Yrotation
      JOINT R_kata
      {
        OFFSET 22.6695 9.65301 -5.3622
        CHANNELS 6 Xposition Yposition Zposition Zrotation Xrotation Yrotation
        JOINT R_hiji
        {
          OFFSET 0 25.813 1.69098
          CHANNELS 6 Xposition Yposition Zposition Zrotation Xrotation Yrotation
          JOINT R_te
          {
            OFFSET 0 28.5636 -0.966307
            CHANNELS 6 Xposition Yposition Zposition Zrotation Xrotation Yrotation
            End Site
            {
              OFFSET 0 0 0
            }
          }
        }
      }
      JOINT L_kata
      {
        OFFSET -22.6695 9.65298 -5.3622
        CHANNELS 6 Xposition Yposition Zposition Zrotation Xrotation Yrotation
        JOINT L_hiji
        {
          OFFSET 0 25.813 1.69102
          CHANNELS 6 Xposition Yposition Zposition Zrotation Xrotation Yrotation
          JOINT L_te
          {
            OFFSET 0 28.5636 -0.966295
            CHANNELS 6 Xposition Yposition Zposition Zrotation Xrotation Yrotation
            End Site
            {
              OFFSET 0 0 0
            }
          }
        }
      }
      JOINT kubi
      {
        OFFSET 0 23.1438 -0.944988
        CHANNELS 6 Xposition Yposition Zposition Zrotation Xrotation Yrotation
        JOINT atama
        {
          OFFSET 0 20.8625 4.12737
          CHANNELS 6 Xposition Yposition Zposition Zrotation Xrotation Yrotation
          JOINT ago
          {
            OFFSET 0 7.552 -7.58201
            CHANNELS 6 Xposition Yposition Zposition Zrotation Xrotation Yrotation
            End Site
            {
              OFFSET 0 0 0
            }
          }
        }
      }
    }
  }
}
MOTION
Frames:	7
Frame Time:	0.0333333
-0.000535104 26.5758 8.64372e-005 -90 -3.50835e-015 -90 0 0 0 -174.665 3.09223 0.502861 -6.10948e-007 42.8363 -0.54814 2.96549 -15.9213 3.73702 1.78814e-007 44.0461 -3.28882 5.39879 9.40622 -5.26512 -9.53674e-007 34.1929 -2.46661 6.42539 1.07551 -1.69208 -5.72205e-006 30.0959 -1.75404 5.95731 9.35802 -0.761259 -3.8147e-006 28.3637 -1.75403 9.45971 -5.79831 5.77053 -1.52588e-005 31.6072 -3.2043 5.2336 -6.13213 -5.40639 -27.891 13.5892 3.92723 117.515 -18.6535 -48.4401 -7.62939e-006 28.01 1.8232 12.0056 -82.2971 -3.96284 -3.8147e-006 24.3992 -2.49173 -149.806 63.0311 -167.631 27.891 13.5892 3.92713 -102.23 -21.3556 59.5348 3.8147e-006 28.0098 1.82319 -3.57017 -68.5056 9.5768 7.62939e-006 24.3992 -2.49171 140.815 67.3486 166.837 6.07673e-007 2.15392 3.55271e-015 5.64698e-008 -0.425654 -5.64698e-008 0.0741627 62.0609 0.472488 -1.51661e-021 2.34068e-017 1.51661e-021 22.6829 9.62584 -5.35447 -148.481 2.78167 46.5076 7.6294e-006 25.813 1.69098 179.965 -77.8729 179.749 -7.6294e-006 28.5636 -0.966311 40.989 13.2129 -94.3908 -22.6561 9.68012 -5.36992 130.688 -5.36622 -52.4239 -3.8147e-006 25.813 1.69102 -179.768 -75.3047 -178.037 7.6294e-006 28.5636 -0.966299 -44.3021 34.5333 110.055 0.0280389 23.1438 -0.944988 -0.204783 -4.04836 -0.0970766 5.96046e-008 20.8625 4.12737 -0.0329987 -4.0886 -0.0476071 5.96046e-008 7.55202 -7.58201 -1.0199e-005 4.26883 2.54241e-006 
0.321035 27.1537 0.141938 -90 -3.50835e-015 -90 0 0 0 -175.053 2.64648 0.513212 -6.10948e-007 42.8363 -0.54814 2.55185 -15.4595 4.02283 1.31674e-007 44.0461 -3.28882 4.87679 10.0074 -4.91908 -9.65454e-007 34.1929 -2.46661 5.9308 1.58842 -2.14824 -5.51418e-006 30.0959 -1.75404 4.65058 9.25385 -1.47672 -2.72675e-006 28.3637 -1.75403 8.98015 -4.66113 5.61006 -1.40624e-005 31.6072 -3.2043 4.76264 -5.57782 -6.01026 -27.891 13.5892 3.92723 117.167 -19.1581 -48.0898 -7.69308e-006 28.01 1.8232 12.3964 -81.6011 -3.75171 -3.7745e-006 24.3992 -2.49173 -150.694 63.6446 -167.701 27.891 13.5892 3.92713 -100.765 -22.4238 60.2605 3.98301e-006 28.0098 1.82319 -3.36639 -66.6794 9.43349 7.66697e-006 24.3992 -2.49171 140.776 67.7875 167.092 6.07673e-007 2.15392 -7.10543e-015 0.147253 -0.83228 -0.0182326 -1.10474e-008 62.0609 0.472488 -1.8778e-035 -3.46393e-016 -3.10601e-018 22.6695 9.653 -5.3622 -147.336 3.71595 44.4109 7.6294e-006 25.813 1.69098 179.939 -78.3875 -179.726 -7.61413e-006 28.5636 -0.966311 42.7244 13.5177 -93.1478 -22.6695 9.65298 -5.3622 130.943 -5.78079 -52.7176 -3.8147e-006 25.813 1.69102 -179.757 -75.0185 -177.678 7.6054e-006 28.5636 -0.966299 -44.3763 34.298 110.334 1.82208e-008 23.1438 -0.944988 -0.507105 -3.14785 0.486311 5.96047e-008 20.8625 4.12737 -0.608483 -3.23784 0.494672 1.04658e-007 7.55202 -7.58201 -2.38018e-008 4.24031 5.6161e-008 
0.63636 27.7204 0.281036 -90 -3.50835e-015 -90 0 0 0 -175.437 2.20601 0.517909 -6.10948e-007 42.8363 -0.54814 2.14723 -15.0048 4.31017 8.4722e-008 44.0461 -3.28882 4.36348 10.597 -4.56916 -9.81998e-007 34.1929 -2.46661 5.44712 2.09123 -2.5862 -5.30685e-006 30.0959 -1.75404 3.29887 9.20773 -2.21942 -1.57946e-006 28.3637 -1.75403 8.5038 -2.05387 5.24785 -1.28066e-005 31.6072 -3.20429 4.2957 -4.02963 -6.6704 -27.891 13.5892 3.92723 115.869 -19.0523 -46.7308 -7.62024e-006 28.01 1.8232 12.7255 -80.9181 -4.87355 -3.67056e-006 24.3992 -2.49173 -151.6 64.2424 -168.944 27.891 13.5892 3.92713 -99.2206 -23.3778 61.0294 4.12759e-006 28.0098 1.82319 -3.19656 -64.8891 9.2641 7.69744e-006 24.3992 -2.49171 140.558 68.1695 167.507 6.07673e-007 2.15392 -7.10543e-015 1.16559 -0.965113 0.0377741 -1.49012e-008 62.0609 0.472488 3.97569e-016 -3.65442e-017 1.86361e-017 22.6695 9.653 -5.3622 -145.419 4.57319 42.2688 7.6294e-006 25.813 1.69098 179.876 -82.257 -179.249 -7.60594e-006 28.5636 -0.96631 44.2268 12.8884 -90.3134 -22.6695 9.65298 -5.3622 130.904 -7.77074 -51.9508 -3.8147e-006 25.813 1.69102 -179.769 -73.2529 -177.351 7.56905e-006 28.5636 -0.966299 -46.7232 34.5834 114.582 1.58518e-008 23.1438 -0.944988 -1.7582 -2.90403 2.46971 5.96047e-008 20.8625 4.12737 -1.44854 -3.09706 2.63161 2.60232e-007 7.55202 -7.58201 1.71755e-005 5.35599 3.44392e-007 
0.954808 28.2928 0.42151 -90 -3.50835e-015 -90 0 0 0 -175.821 1.76281 0.515972 -6.10948e-007 42.8363 -0.54814 1.74043 -14.5443 4.6074 3.66962e-008 44.0461 -3.28881 3.84385 11.2354 -4.20749 -1.00424e-006 34.1929 -2.46661 4.08623 2.60409 -2.98131 -4.7203e-006 30.0959 -1.75404 1.79223 9.27996 -3.04127 5.15524e-008 28.3637 -1.75403 7.31502 0.586147 4.93293 -1.04065e-005 31.6072 -3.20429 3.82921 -2.46371 -7.31103 -27.891 13.5892 3.92723 114.573 -18.9002 -45.3622 -7.52952e-006 28.01 1.8232 13.0126 -80.2279 -6.65202 -3.5475e-006 24.3992 -2.49173 -153.254 64.9791 -169.96 27.891 13.5892 3.92713 -97.0974 -24.3677 62.0587 4.26651e-006 28.0098 1.82319 -3.04971 -63.0798 9.06913 7.68495e-006 24.3992 -2.49171 140.508 68.6064 167.64 6.07673e-007 2.15392 0 2.70832 -0.694845 0.159069 -1.49012e-008 62.0609 0.472488 2.06094e-034 4.7522e-016 -2.48481e-017 22.6695 9.653 -5.3622 -143.575 3.59662 41.3746 7.6294e-006 25.813 1.69098 179.372 -88.0536 -179.256 -7.61225e-006 28.5636 -0.96631 45.5624 10.9196 -86.0636 -22.6695 9.65298 -5.3622 131.167 -10.9367 -50.0102 -3.8147e-006 25.813 1.69102 -179.774 -71.9089 -176.184 7.47213e-006 28.5636 -0.966299 -49.0961 34.7771 118.912 1.58518e-008 23.1438 -0.944988 -3.2028 -3.2269 5.38133 5.96047e-008 20.8625 4.12737 -2.72275 -3.51853 5.47929 4.70768e-007 7.55202 -7.58201 -1.08243e-005 4.33036 1.07983e-005 
1.27618 28.8707 0.5655 -90 -3.50835e-015 -90 0 0 0 -176.217 1.31289 0.508814 -6.10948e-007 42.8363 -0.54814 1.3319 -14.0789 4.91412 -1.2423e-008 44.0461 -3.28881 2.71192 11.8871 -3.70529 -9.91305e-007 34.1929 -2.46661 2.71128 3.12797 -3.35539 -4.08943e-006 30.0959 -1.75404 0.268981 9.536 -3.91306 1.77299e-006 28.3637 -1.75403 6.12887 3.23572 4.72877 -7.78137e-006 31.6072 -3.20429 3.36191 -0.880783 -8.45725 -27.891 13.5892 3.92723 113.292 -18.624 -43.7436 -7.40302e-006 28.01 1.8232 13.2647 -79.5311 -8.48735 -3.4164e-006 24.3992 -2.49173 -155.011 65.7096 -170.893 27.891 13.5892 3.92713 -94.8044 -25.1794 63.1776 4.37061e-006 28.0098 1.82319 -2.92095 -61.2449 9.27258 7.68935e-006 24.3992 -2.49171 140.327 69.2444 167.936 6.07673e-007 2.15392 -3.55271e-015 4.68427 -0.0106438 0.308737 -1.49012e-008 62.0609 0.472488 -2.38542e-015 -4.19311e-016 4.96962e-017 22.6695 9.653 -5.3622 -141.933 2.62703 38.5574 7.6294e-006 25.813 1.69098 0.209892 -82.6685 2.08195 -7.64403e-006 28.5636 -0.96631 46.6279 9.04223 -83.2872 -22.6695 9.65298 -5.3622 130.757 -15.7095 -46.8943 -3.8147e-006 25.813 1.69102 -179.778 -70.5722 -175.005 7.36491e-006 28.5636 -0.966299 -52.9021 33.5246 123.775 1.58518e-008 23.1438 -0.944988 -4.47828 -4.05138 8.27342 5.96047e-008 20.8625 4.12737 -3.72866 -4.80407 8.4808 6.93909e-007 7.55202 -7.58201 -1.00545e-005 3.31887 5.82753e-007 
1.57113 29.4374 0.920536 -90 -3.50835e-015 -90 0 0 0 -177.192 0.872984 0.504227 -6.10948e-007 42.8363 -0.54814 0.933396 -13.6221 5.22118 -6.12431e-008 44.0461 -3.28881 1.59662 12.5226 -3.18779 -9.8355e-007 34.1929 -2.4666 1.36382 4.2616 -3.71301 -3.45105e-006 30.0959 -1.75404 -1.2258 10.0226 -4.74976 3.52857e-006 28.3637 -1.75403 4.95273 2.7563 4.904 -4.99617e-006 31.6072 -3.20429 2.90736 0.672386 -9.55617 -27.891 13.5892 3.92723 112.375 -17.9137 -41.5555 -7.19908e-006 28.01 1.8232 13.4857 -78.8478 -10.3153 -3.31599e-006 24.3992 -2.49173 -156.4 66.8338 -172.174 27.891 13.5892 3.92713 -91.1859 -25.8312 64.5638 4.40642e-006 28.0098 1.82319 -2.74661 -58.6446 9.53222 7.69783e-006 24.3992 -2.49171 139.629 69.9556 168.626 6.07673e-007 2.15392 -7.10543e-015 6.82449 1.11737 0.424045 -1.49012e-008 62.0609 0.472488 2.38542e-015 -3.72721e-016 1.49019e-012 22.6695 9.653 -5.3622 -141.66 -1.32028 38.3123 7.6294e-006 25.813 1.69098 0.108487 -73.571 2.47097 -7.69059e-006 28.5636 -0.966309 45.9644 4.75836 -80.8313 -22.6695 9.65298 -5.3622 129.885 -20.4073 -42.807 -3.8147e-006 25.813 1.69102 -179.758 -71.2608 -173.825 7.28768e-006 28.5636 -0.966299 -56.4754 32.1172 129.692 1.58518e-008 23.1438 -0.944988 -5.20499 -5.57661 10.6855 5.96047e-008 20.8625 4.12737 -4.58448 -6.61438 10.9906 8.89193e-007 7.55202 -7.58201 -2.07633e-006 4.82451 1.01486e-005 
1.86901 30.0097 1.27909 -90 -3.50835e-015 -90 0 0 0 -178.177 0.427463 0.484449 -6.10948e-007 42.8363 -0.54814 0.530185 -12.6851 5.53406 -1.22747e-007 44.0461 -3.28882 0.465127 13.1599 -2.63989 -9.86071e-007 34.1929 -2.4666 -0.00121176 5.40592 -4.01977 -2.80594e-006 30.0959 -1.75403 -2.74301 10.6919 -5.51546 5.29278e-006 28.3637 -1.75401 3.76632 2.26926 5.06071 -2.14094e-006 31.6072 -3.2043 2.45259 2.24246 -10.6412 -27.891 13.5892 3.92723 110.873 -16.7758 -39.0187 -6.88878e-006 28.01 1.8232 14.6444 -78.9286 -12.2819 -3.07662e-006 24.3992 -2.49173 -157.933 67.9595 -174.074 27.891 13.5892 3.92713 -87.4295 -26.2161 65.7623 4.37544e-006 28.0098 1.82319 -2.60032 -56.0183 10.2448 7.73954e-006 24.3992 -2.49171 139.403 70.5849 168.96 6.07673e-007 2.15392 -7.10543e-015 8.78455 2.31153 0.596574 -1.49012e-008 62.0609 0.472488 -5.725e-014 1.83876e-015 1.00179e-005 22.6695 9.653 -5.3622 -141.922 -6.34847 40.4786 7.6294e-006 25.813 1.69098 0.0768572 -62.6183 2.29913 -7.72366e-006 28.5636 -0.966308 44.224 -0.936955 -79.3894 -22.6695 9.65298 -5.3622 130.044 -25.4999 -37.8942 -3.8147e-006 25.813 1.69102 -179.737 -71.9575 -172.825 7.22937e-006 28.5636 -0.966299 -59.2797 29.8904 134.271 1.58518e-008 23.1438 -0.944988 -5.04768 -7.85557 12.566 5.96047e-008 20.8625 4.12737 -4.89323 -8.7267 12.4278 1.0101e-006 7.55202 -7.58201 -1.13313e-006 6.3466 1.00728e-005 
